# xmcd CD database file
#
# Track frame offsets:
#	150
#	15634
#	30239
#	46150
#	62594
#	78492
#	97558
#	114967
#	133871
#	147840
#	163889
#	179077
#	197301
#	216045
#
# Disc length: 3049 seconds
#
# Revision: 1
# Processed by: cddbd v1.5.2PL0 Copyright (c) Steve Scherf et al.
# Submitted via: CDex 1.70beta2
#
DISCID=af0be70e
DTITLE=Gal Costa - Novelas
DYEAR=2005
DGENRE=Tema de Novela
TTITLE0=Modinha Para Gabriela
TTITLE1=Canta Brasil
TTITLE2=Meu Bem, Meu Mal
TTITLE3=O Amor
TTITLE4=Dom de Iludir
TTITLE5=Verbos do Amor
TTITLE6=Baby
TTITLE7=Nada Mais
TTITLE8=Chuva de Prata
TTITLE9=Nossos Momentos
TTITLE10=Solidão
TTITLE11=Futuros Amantes
TTITLE12=Caminhos do Mar
TTITLE13=Brasil
EXTD=YEAR: 2005
EXTT0=
EXTT1=
EXTT2=
EXTT3=
EXTT4=
EXTT5=
EXTT6=
EXTT7=
EXTT8=
EXTT9=
EXTT10=
EXTT11=
EXTT12=
EXTT13=
PLAYORDER=
